<?xml version="1.0" standalone="no"?>
<!DOCTYPE svg PUBLIC "-//W3C//DTD SVG 20010904//EN"
 "http://www.w3.org/TR/2001/REC-SVG-20010904/DTD/svg10.dtd">
<svg version="1.0" xmlns="http://www.w3.org/2000/svg"
 width="1000.000000pt" height="1000.000000pt" viewBox="0 0 1000.000000 1000.000000"
 preserveAspectRatio="xMidYMid meet">

<g transform="translate(0.000000,1000.000000) scale(0.100000,-0.100000)"
fill="#000000" stroke="none">
<path d="M4365 7710 c-639 -46 -1227 -386 -1580 -915 -60 -91 -2595 -4481
-2603 -4508 -4 -16 36 -17 773 -15 l778 3 1097 1902 c603 1045 1111 1924 1129
1952 50 77 168 182 259 229 86 45 193 77 289 87 126 12 305 -29 423 -98 71
-42 216 -186 258 -259 122 -207 133 -479 27 -687 -18 -36 -429 -754 -914
-1595 -485 -841 -881 -1530 -881 -1532 0 -2 350 -4 778 -4 l778 0 50 87 c28
49 236 410 464 803 227 393 548 949 713 1235 165 286 390 675 500 865 109 190
267 464 351 609 125 218 164 277 224 342 146 156 320 232 532 232 114 0 169
-10 270 -50 311 -123 507 -472 447 -798 -28 -151 96 73 -1281 -2313 -312 -541
-570 -990 -573 -998 -4 -12 98 -14 771 -14 l776 0 24 38 c13 20 185 316 382
657 608 1056 652 1133 804 1395 81 140 161 283 179 317 84 167 155 386 193
598 29 159 32 524 5 680 -82 470 -295 882 -617 1189 -751 714 -1917 763 -2732
114 -47 -37 -141 -125 -207 -194 l-121 -126 -27 34 c-15 18 -61 68 -103 112
-417 437 -1023 669 -1635 626z"/>
</g>
</svg>
